<svg  version="1.0" encoding="UTF-8"?>
<svg version="1.1" xmlns="http://www.w3.org/2000/svg" width="512" height="512">
<path d="M0 0 C1.53607577 2.47478874 1.77842535 4.76873519 1.66647339 7.64878845 C-0.09636933 14.6930555 -8.67893932 20.51931004 -13.8828125 25.21484375 C-16.15032613 27.33055868 -18.40902314 29.45540419 -20.66699219 31.58129883 C-22.2239991 33.02865048 -23.7974778 34.45847941 -25.38671875 35.87036133 C-34.35785757 43.22061429 -34.35785757 43.22061429 -39.25720215 53.21905518 C-39.12417232 58.40218141 -37.74510349 63.00940952 -35.875 67.8125 C-33.91016163 68.57660381 -31.89427511 69.20671747 -29.875 69.8125 C-28.52282883 70.24312492 -28.52282883 70.24312492 -27.14334106 70.68244934 C-21.10643916 72.22079469 -21.10643916 72.22079469 -15.32562256 70.47640991 C-12.75805347 68.30051009 -10.51055271 65.99798498 -8.2421875 63.51171875 C-7.39826447 62.64561478 -6.55434143 61.7795108 -5.68484497 60.88716125 C-3.00505753 58.12262867 -0.37788001 55.31383308 2.25 52.5 C4.0539405 50.61722613 5.86120117 48.73762743 7.671875 46.86132812 C11.64138719 42.74596739 15.57691059 38.60085735 19.48464966 34.42680359 C22.43654344 31.52178226 25.00448914 31.61001866 29.0546875 31.38671875 C32.10823821 32.01471314 33.19859245 33.40148681 35.125 35.8125 C36.35546875 38.65234375 36.35546875 38.65234375 37.3125 41.75 C37.79783203 43.27947266 37.79783203 43.27947266 38.29296875 44.83984375 C43.55652125 63.64530597 40.78864 84.38285267 31.53662109 101.38525391 C21.55136681 118.48799382 5.11197349 130.35775032 -13.8125 135.6875 C-23.33454687 137.76084891 -33.07531175 138.21308533 -42.75 137.1875 C-49.6045887 136.56050425 -55.25406525 137.27583776 -60.98828125 141.29296875 C-63.05667141 143.04808817 -64.96840921 144.88312127 -66.875 146.8125 C-67.62523437 147.54984375 -68.37546875 148.2871875 -69.1484375 149.046875 C-71.07453663 150.9526994 -72.98184609 152.87403123 -74.875 154.8125 C-73.34927344 158.13885882 -71.94155496 159.76813002 -68.875 161.8125 C-68.47410156 161.35359375 -68.07320312 160.8946875 -67.66015625 160.421875 C-62.39591491 154.73983673 -57.49787442 151.36270714 -49.69140625 150.43359375 C-41.06353161 150.12438668 -35.67942207 151.61332689 -29.125 157.125 C-23.82205817 163.45906941 -21.81793248 168.57195072 -21.875 176.8125 C-22.06899887 177.42219635 -22.26299774 178.0318927 -22.46287537 178.6600647 C-23.16775326 181.30393145 -23.31175417 183.09496453 -22.875 185.8125 C-19.95924269 190.13051161 -16.20668319 193.54649414 -12.4296875 197.09375 C-11.33918487 198.15539787 -10.2511769 199.21961366 -9.16555786 200.28625488 C-6.30466824 203.08641062 -3.41688507 205.85697843 -0.52056885 208.62042236 C4.09923114 213.03542168 8.68113878 217.48938212 13.25475693 221.95213318 C14.84710872 223.49661946 16.45331316 225.02546021 18.06204224 226.55285645 C23.5472037 231.82068263 28.01315422 236.81456204 31.125 243.8125 C31.44945099 244.52031616 31.77390198 245.22813232 32.10818481 245.95739746 C35.8558315 254.62297711 35.40930719 266.15839777 32.375 274.9375 C29.66555656 281.28805515 26.185641 286.11333336 21.125 290.8125 C20.2175 291.658125 19.31 292.50375 18.375 293.375 C9.08014163 301.00834223 -2.35982496 301.80180469 -13.875 300.8125 C-26.92028992 298.32625646 -35.09728162 289.91586549 -43.9176693 280.52281189 C-46.36690459 277.92554379 -48.8537294 275.36447312 -51.33398438 272.796875 C-54.46412635 269.5529182 -57.58201954 266.29951196 -60.65991211 263.00585938 C-63.17249835 260.31916156 -65.72104844 257.67157665 -68.29679298 255.04542542 C-69.26216431 254.04759907 -70.21403736 253.03650775 -71.15085411 252.01182556 C-76.7722358 245.83403213 -76.7722358 245.83403213 -84.48916626 243.47924805 C-88.18981948 243.71634594 -88.18981948 243.71634594 -91.66609192 244.36193848 C-97.98609429 245.24932753 -102.94992827 243.04745168 -108.1875 239.6875 C-113.48578316 234.01956918 -116.61116979 228.19282763 -117 220.35546875 C-116.61240289 212.47029008 -113.95147802 207.12353864 -108.49609375 201.50390625 C-106.67578854 199.70355046 -106.67578854 199.70355046 -104.875 196.8125 C-106.525 195.1625 -108.175 193.5125 -109.875 191.8125 C-114.00301449 193.45375877 -116.84859739 196.41867752 -119.9375 199.5 C-120.46666016 200.00466797 -120.99582031 200.50933594 -121.54101562 201.02929688 C-127.196051 206.64175984 -129.56055963 212.82533801 -129.875 220.8125 C-129.79896535 223.69912537 -129.55963233 226.56120665 -129.3125 229.4375 C-128.02740436 248.42879183 -132.92596874 265.62269593 -145.04296875 280.46875 C-147.25204212 282.99340528 -149.52797819 285.41606721 -151.875 287.8125 C-152.46539062 288.43898438 -153.05578125 289.06546875 -153.6640625 289.7109375 C-167.98315278 303.65154963 -188.0849682 307.32434331 -207.2109375 307.1015625 C-216.8795259 306.78068075 -227.78600715 304.90149285 -234.875 297.8125 C-235.49122605 293.84126546 -235.87788764 291.28515034 -233.57034302 287.89672852 C-229.21384172 283.13023702 -224.64901762 278.71129821 -219.8671875 274.375 C-217.600059 272.25227559 -215.34126364 270.12092742 -213.08300781 267.98876953 C-211.52515173 266.53557477 -209.95168066 265.09894493 -208.36328125 263.67919922 C-199.48103092 256.38839416 -199.48103092 256.38839416 -194.47668457 246.53955078 C-194.58514907 240.88247745 -196.35978579 235.84292843 -198.875 230.8125 C-204.33469643 228.1190096 -209.80027502 226.46596882 -215.875 227.8125 C-223.9745418 232.45658166 -230.11156442 240.2268688 -236.3125 247.0625 C-238.09217997 248.95117302 -239.8766486 250.83534588 -241.66601562 252.71484375 C-245.57944226 256.83270502 -249.44349414 260.99119011 -253.26829529 265.19146729 C-256.18051655 268.12965867 -258.76802182 268.01572744 -262.8046875 268.23828125 C-265.85607914 267.61073089 -266.94831376 266.2198564 -268.875 263.8125 C-270.10546875 261.0078125 -270.10546875 261.0078125 -271.0625 257.9375 C-271.38605469 256.92945313 -271.70960938 255.92140625 -272.04296875 254.8828125 C-277.16862746 235.96840993 -274.58857303 215.33193952 -265.28662109 198.23999023 C-255.06216244 180.72522897 -238.10614704 168.71686014 -218.6484375 163.5625 C-209.45347545 161.7349299 -200.25054205 161.46236971 -190.9375 162.4375 C-183.64727104 163.09035632 -178.17233692 162.31612432 -172.24609375 157.81640625 C-169.69431994 155.56126188 -167.27028586 153.23247953 -164.875 150.8125 C-164.22789062 150.17828125 -163.58078125 149.5440625 -162.9140625 148.890625 C-161.55162162 147.54737343 -160.21019778 146.18283456 -158.875 144.8125 C-160.40592114 141.23489937 -162.53233336 138.84518691 -165.21923828 136.05078125 C-166.12263947 135.10879883 -167.02604065 134.16681641 -167.95681763 133.19628906 C-168.95193168 132.17150452 -169.94812816 131.14777013 -170.9453125 130.125 C-171.70852121 129.34207581 -171.70852121 129.34207581 -172.48714828 128.54333496 C-175.1984912 125.76676663 -177.91799753 122.99843816 -180.64257812 120.23486328 C-182.85868423 117.98360509 -185.05663408 115.71683099 -187.23925781 113.43310547 C-199.07509094 101.06127858 -209.87011268 90.14644512 -226.08621216 83.63513184 C-235.17797584 79.90332667 -239.14637252 73.840614 -242.99609375 64.96484375 C-245.14284594 60.26321455 -247.50222959 55.75412291 -250.03515625 51.25390625 C-250.3989035 50.60698318 -250.76265076 49.96006012 -251.13742065 49.29353333 C-251.87324229 47.98692703 -252.609661 46.68065679 -253.34667969 45.37472534 C-255.08215441 42.29263605 -256.79809454 39.20015054 -258.50390625 36.1015625 C-259.08213135 35.05693848 -259.66035645 34.01231445 -260.25610352 32.93603516 C-264.9991179 23.78475691 -264.9991179 23.78475691 -264.5 19.875 C-260.719603 12.75040565 -253.92876124 4.96034853 -246.375 1.75 C-239.30153892 1.92683653 -231.92237806 7.38336846 -225.875 10.6875 C-224.83569336 11.2539624 -223.79638672 11.8204248 -222.72558594 12.40405273 C-219.43866627 14.20076681 -216.15610257 16.00518672 -212.875 17.8125 C-211.24208008 18.7104126 -211.24208008 18.7104126 -209.57617188 19.62646484 C-206.42065503 21.36693257 -203.27167718 23.11860952 -200.125 24.875 C-199.155625 25.41044434 -198.18625 25.94588867 -197.1875 26.49755859 C-196.28515625 27.00496582 -195.3828125 27.51237305 -194.453125 28.03515625 C-193.66325195 28.47609619 -192.87337891 28.91703613 -192.05957031 29.37133789 C-186.98963619 32.71597593 -185.20716875 36.14447377 -182.94648743 41.61911011 C-175.79244668 58.30729566 -163.34877121 69.63363431 -150.47802734 81.96478271 C-147.45360595 84.87466456 -144.46185466 87.81776969 -141.46679688 90.7578125 C-135.63346654 96.47477766 -129.76634439 102.15533797 -123.875 107.8125 C-116.31795462 104.28950041 -108.67883178 96.45419627 -105.44921875 88.703125 C-103.71664192 82.99858631 -103.85902509 77.99878962 -104.60546875 72.13671875 C-106.68644224 54.19209224 -101.18301141 34.56744151 -90.06640625 20.37109375 C-69.06444126 -4.14991707 -29.75473813 -18.84466748 0 0 Z M-74.25 28 C-86.71929589 43.18459711 -88.44366531 60.17686309 -87.58203125 79.1328125 C-87.2223437 93.77053203 -92.85988764 103.45598863 -102.71087646 113.84393311 C-106.13898672 117.3973143 -109.62412164 120.89343976 -113.11328125 124.38671875 C-114.40225649 125.68213551 -115.69108747 126.97769582 -116.9797821 128.27339172 C-119.67008293 130.97560483 -122.36442074 133.67371718 -125.0612793 136.36938477 C-128.49744268 139.80534469 -131.91961929 143.25487914 -135.33843708 146.70808697 C-137.99201936 149.38401664 -140.6547545 152.05069518 -143.32005882 154.71494484 C-144.58501853 155.98224655 -145.84677921 157.25275059 -147.10509682 158.52664757 C-156.55298607 168.08056112 -166.79034419 178.184573 -180.97802734 178.98828125 C-184.51092534 179.00042701 -188.03125031 178.91852722 -191.5625 178.8125 C-210.5682094 178.56600706 -227.32222061 181.36157404 -241.55859375 195.17578125 C-254.17300754 209.53451532 -257.63490441 224.00486579 -256.875 242.8125 C-252.27809729 239.08742366 -248.09090371 235.06804541 -243.96875 230.828125 C-243.43685059 230.28361694 -242.90495117 229.73910889 -242.35693359 229.17810059 C-240.13039835 226.89744127 -237.90540472 224.61578432 -235.69970703 222.31494141 C-234.07177487 220.62015372 -232.42814626 218.94196375 -230.78125 217.265625 C-230.2924939 216.74792542 -229.80373779 216.23022583 -229.3001709 215.69683838 C-225.76078422 212.13072188 -222.82057966 210.63085276 -217.875 209.8125 C-214.38989258 210.12036133 -214.38989258 210.12036133 -210.76953125 210.89453125 C-210.12304123 211.02816574 -209.47655121 211.16180023 -208.81047058 211.29948425 C-206.76587132 211.72594774 -204.72704827 212.17506768 -202.6875 212.625 C-201.30825805 212.91621111 -199.92870188 213.20593811 -198.54882812 213.49414062 C-193.64023822 214.52686524 -188.73315461 215.56025907 -183.875 216.8125 C-182.70612684 221.99232878 -181.55134711 227.17495764 -180.4140625 232.36181641 C-180.07085975 233.92208326 -179.72481562 235.4817298 -179.375 237.04052734 C-178.92661232 239.04566102 -178.49264003 241.05338439 -178.0625 243.0625 C-177.80855469 244.22265625 -177.55460937 245.3828125 -177.29296875 246.578125 C-176.74547543 250.81480228 -176.52896798 253.86645995 -179.04980469 257.51098633 C-184.81486076 264.33047365 -191.46439031 270.4772175 -197.8125 276.75 C-200.09528535 279.00627436 -202.3747794 281.26580074 -204.65234375 283.52734375 C-205.17722885 284.04393051 -205.70211395 284.56051727 -206.24290466 285.09275818 C-207.47253993 286.31389471 -208.67669247 287.56060689 -209.875 288.8125 C-209.875 289.1425 -209.875 289.4725 -209.875 289.8125 C-190.61244555 290.80541518 -176.15823025 286.78333169 -161.53515625 273.72265625 C-150.57291852 262.4237663 -145.59827401 247.05706388 -145.7578125 231.5234375 C-145.85588653 227.84369996 -146.00082238 224.16940771 -146.16796875 220.4921875 C-146.52691542 205.88461858 -140.91664636 196.18272007 -131.07107544 185.81988525 C-127.69337091 182.32652232 -124.25845053 178.89075205 -120.8203125 175.45703125 C-119.55128694 174.1841097 -118.28248196 172.91096821 -117.0138855 171.63761902 C-114.36631743 168.9826295 -111.71496116 166.33149484 -109.06103516 163.68286133 C-105.67810557 160.30573314 -102.30670052 156.9173538 -98.93828011 153.5257616 C-96.32512439 150.89780585 -93.70500149 148.27688226 -91.08288193 145.65787315 C-89.83753043 144.412012 -88.59450712 143.16381868 -87.3539772 141.91315651 C-76.40319544 130.88390216 -65.65183057 120.65621545 -49.16796875 120.52734375 C-46.79905697 120.58657479 -44.4304876 120.66119645 -42.0625 120.75 C-24.06510866 121.05061937 -8.88087859 118.63403292 5.4375 106.75 C15.48299749 97.00239205 22.89742732 84.18427392 23.35546875 69.99609375 C23.40995068 65.59463993 23.30268808 61.21028003 23.125 56.8125 C18.52809729 60.53757634 14.34090371 64.55695459 10.21875 68.796875 C9.68685059 69.34138306 9.15495117 69.88589111 8.60693359 70.44689941 C6.38039835 72.72755873 4.15540472 75.00921568 1.94970703 77.31005859 C0.32177487 79.00484628 -1.32185374 80.68303625 -2.96875 82.359375 C-3.4575061 82.87707458 -3.94626221 83.39477417 -4.4498291 83.92816162 C-7.98921578 87.49427812 -10.92942034 88.99414724 -15.875 89.8125 C-19.36010742 89.50463867 -19.36010742 89.50463867 -22.98046875 88.73046875 C-23.62695877 88.59683426 -24.27344879 88.46319977 -24.93952942 88.32551575 C-26.98412868 87.89905226 -29.02295173 87.44993232 -31.0625 87 C-32.44174195 86.70878889 -33.82129812 86.41906189 -35.20117188 86.13085938 C-40.10976178 85.09813476 -45.01684539 84.06474093 -49.875 82.8125 C-52.02043956 73.59908952 -54.07612998 64.36261042 -55.8125 55.0625 C-55.96501221 54.32531738 -56.11752441 53.58813477 -56.2746582 52.82861328 C-57.18910615 47.68240525 -56.55220586 45.22504405 -53.875 40.8125 C-51.72700946 38.2970801 -49.3915381 36.00229023 -47.01953125 33.69921875 C-46.02707649 32.71668877 -46.02707649 32.71668877 -45.01457214 31.71430969 C-42.91256835 29.63560927 -40.8006184 27.56739553 -38.6875 25.5 C-36.56548465 23.41300378 -34.44561934 21.32388494 -32.32829285 19.23213196 C-31.01266265 17.93353707 -29.69397173 16.6380347 -28.37202454 15.34587097 C-26.85446834 13.85337527 -25.36186126 12.33557709 -23.875 10.8125 C-23.875 10.4825 -23.875 10.1525 -23.875 9.8125 C-43.88281969 8.78116909 -59.91756695 13.22741546 -74.25 28 Z M-243.875 21.8125 C-245.20260562 24.71009111 -245.20260562 24.71009111 -243.95385742 27.07055664 C-243.46763916 27.94574951 -242.9814209 28.82094238 -242.48046875 29.72265625 C-241.67428101 31.19472534 -241.67428101 31.19472534 -240.85180664 32.6965332 C-240.26133545 33.74542725 -239.67086426 34.79432129 -239.0625 35.875 C-231.34498918 49.5853177 -231.34498918 49.5853177 -228.69873047 56.13378906 C-224.4837784 64.45925769 -220.96383079 67.69731927 -212.30078125 71.09375 C-196.38967028 78.2249931 -185.21067444 91.23297389 -173.33203125 103.60015869 C-170.2410996 106.80549683 -167.11708224 109.97826643 -163.99609375 113.15429688 C-157.92375622 119.34310296 -151.88773268 125.56577 -145.875 131.8125 C-144.78660226 130.92282656 -143.70455392 130.02538426 -142.625 129.125 C-142.02171875 128.62613281 -141.4184375 128.12726563 -140.796875 127.61328125 C-138.5640576 125.5211495 -136.73960342 123.23400931 -134.875 120.8125 C-135.52708939 120.18483734 -136.17917877 119.55717468 -136.85102844 118.91049194 C-143.07172907 112.91264651 -149.26376954 106.88684874 -155.42724323 100.83019066 C-158.59497179 97.71922941 -161.77177919 94.61906214 -164.97387695 91.54345703 C-189.62924039 67.83868755 -189.62924039 67.83868755 -196.48757935 51.77507019 C-200.07182008 43.56771017 -204.17725417 40.46103265 -212.5625 37 C-214.84827188 35.91926987 -217.13342924 34.83723905 -219.41796875 33.75390625 C-220.51802246 33.26035645 -221.61807617 32.76680664 -222.75146484 32.25830078 C-227.11428515 30.23886809 -231.23608837 27.87556925 -235.375 25.4375 C-239.37433247 22.82537676 -239.37433247 22.82537676 -243.875 21.8125 Z M-88.875 167.8125 C-92.175 171.1125 -95.475 174.4125 -98.875 177.8125 C-95.905 181.2775 -95.905 181.2775 -92.875 184.8125 C-89.38146162 183.06573081 -87.73554237 181.89844785 -85.125 179.1875 C-84.20460938 178.24003906 -84.20460938 178.24003906 -83.265625 177.2734375 C-82.80671875 176.79132813 -82.3478125 176.30921875 -81.875 175.8125 C-83.52692612 171.60759714 -84.88728669 171.00267065 -88.875 167.8125 Z M-67.37109375 184.17578125 C-68.24524429 185.04897507 -69.11939484 185.92216888 -70.02003479 186.82182312 C-71.85239427 188.65350616 -73.68350784 190.48643635 -75.51342773 192.32055664 C-77.39023402 194.2009643 -79.26830548 196.07996483 -81.14916992 197.95629883 C-83.87165351 200.67263205 -86.59068323 203.39237311 -89.30859375 206.11328125 C-90.1532872 206.95595047 -90.99798065 207.79861969 -91.86827087 208.66682434 C-92.64320389 209.44490952 -93.4181369 210.22299469 -94.21655273 211.0246582 C-94.90079819 211.70969925 -95.58504364 212.3947403 -96.2900238 213.10054016 C-98.65032599 215.64994284 -98.86550746 216.68197762 -99.125 220.25 C-99.16757412 223.6786493 -99.16757412 223.6786493 -97.6875 225.6875 C-95.30457957 227.16655406 -93.69082552 227.67841307 -90.875 227.8125 C-87.03187591 225.84203006 -84.16231494 223.36564664 -81.10058594 220.34448242 C-79.72456207 218.99243965 -79.72456207 218.99243965 -78.32073975 217.61308289 C-77.33314033 216.63185888 -76.34603035 215.65014204 -75.359375 214.66796875 C-74.33765759 213.65522608 -73.31586688 212.64255736 -72.29400635 211.62995911 C-70.15875821 209.51115756 -68.0279044 207.38804002 -65.89941406 205.26245117 C-63.17522329 202.54365585 -60.43522581 199.84140522 -57.69103622 197.1428175 C-55.57730708 195.0588605 -53.47494954 192.96371016 -51.37555695 190.86532021 C-50.37014673 189.86410786 -49.36062665 188.86700464 -48.3469162 187.87419701 C-46.93008757 186.48429427 -45.53056026 185.07682164 -44.13183594 183.66870117 C-43.33195251 182.8738884 -42.53206909 182.07907562 -41.70794678 181.26017761 C-39.53617974 178.36004673 -39.05035011 176.40983013 -38.875 172.8125 C-40.21615399 169.80270117 -40.21615399 169.80270117 -42.875 167.8125 C-52.80604077 165.52072136 -61.02382006 177.81303739 -67.37109375 184.17578125 Z M-37.33035278 200.02734375 C-37.89438812 200.59582031 -38.45842346 201.16429687 -39.03955078 201.75 C-39.68006378 202.39066406 -40.32057678 203.03132812 -40.98049927 203.69140625 C-41.67013763 204.39136719 -42.359776 205.09132812 -43.0703125 205.8125 C-44.13147781 206.87791016 -44.13147781 206.87791016 -45.21408081 207.96484375 C-47.48077155 210.2427627 -49.74042438 212.52752512 -52 214.8125 C-53.53209477 216.35462114 -55.06464104 217.89629386 -56.59765625 219.4375 C-60.36203256 223.22397169 -64.12064777 227.01609048 -67.875 230.8125 C-62.91737727 236.77602453 -57.58812978 242.29222014 -52.12890625 247.796875 C-51.66874556 248.26111122 -51.20858486 248.72534744 -50.7344799 249.20365143 C-48.30434892 251.65448104 -45.87107108 254.10213693 -43.43530273 256.54736328 C-40.93431602 259.05946141 -38.44524294 261.58303516 -35.95855808 264.10927963 C-33.56569581 266.53464829 -31.1588222 268.94595891 -28.75390625 271.359375 C-27.86828506 272.26250427 -26.98266388 273.16563354 -26.07020569 274.09613037 C-20.76809306 279.37979861 -16.63665646 283.14534484 -9.03125 284.2109375 C-0.67429223 284.13719964 5.32910565 282.25497362 11.546875 276.52734375 C16.73049347 270.89464942 17.8085503 265.25108009 17.49609375 257.6953125 C15.89290865 245.24109562 3.3978361 235.92936636 -4.99609375 227.5234375 C-5.82206558 226.69413727 -6.64803741 225.86483704 -7.4990387 225.01040649 C-9.22453871 223.27989022 -10.95135237 221.55068284 -12.67944336 219.82275391 C-15.33539729 217.1645836 -17.98321435 214.49847468 -20.63085938 211.83203125 C-22.31461587 210.14534575 -23.99884332 208.45913021 -25.68359375 206.7734375 C-26.4762413 205.97360443 -27.26888885 205.17377136 -28.08555603 204.34970093 C-28.81714432 203.62118927 -29.5487326 202.89267761 -30.30249023 202.14208984 C-30.94596909 201.49718597 -31.58944794 200.8522821 -32.25242615 200.18783569 C-34.35910702 198.40215833 -35.18405304 198.23573772 -37.33035278 200.02734375 Z " fill="#000000" transform="translate(452.875,26.1875)"/>
<path d="M0 0 C0.69641602 -0.00700928 1.39283203 -0.01401855 2.11035156 -0.02124023 C4.40730932 -0.03881383 6.70303021 -0.02720107 9 -0.01367188 C10.59896073 -0.01636701 12.19791987 -0.0202496 13.796875 -0.02526855 C17.14599226 -0.03116269 20.49468243 -0.0226038 23.84375 -0.00390625 C28.13478591 0.01888377 32.42482111 0.00576017 36.71582031 -0.01819611 C40.01700366 -0.03265667 43.31795011 -0.02804703 46.61914062 -0.01768494 C48.20117308 -0.01501834 49.78322711 -0.0182851 51.36523438 -0.02760315 C53.57740163 -0.03777366 55.787953 -0.02226378 58 0 C59.8871875 0.00477356 59.8871875 0.00477356 61.8125 0.00964355 C65 0.51757812 65 0.51757812 67.41308594 2.29309082 C69.138687 4.7119853 69.47909081 5.70758133 69.390625 8.62695312 C69.37773437 9.38105469 69.36484375 10.13515625 69.3515625 10.91210938 C69.30128906 12.07806641 69.30128906 12.07806641 69.25 13.26757812 C69.23195312 14.06035156 69.21390625 14.853125 69.1953125 15.66992188 C69.14833082 17.6196616 69.07659044 19.56877691 69 21.51757812 C69.56803848 21.36724121 70.13607697 21.2169043 70.72132874 21.06201172 C76.70321274 19.48274868 82.69146902 17.92961294 88.68383789 16.390625 C90.91111425 15.8150964 93.13675845 15.23320858 95.3605957 14.64453125 C98.58122593 13.79322508 101.80728549 12.96594831 105.03515625 12.14257812 C106.00767838 11.88009277 106.9802005 11.61760742 107.98219299 11.34716797 C121.82542622 7.88227473 134.3648134 9.54885565 147.92578125 13.22070312 C149.4723666 13.62499379 151.0193635 14.02771278 152.56672668 14.42901611 C155.92184977 15.30312236 159.27352686 16.18912325 162.62310791 17.08422852 C168.23867902 18.58452676 173.86206959 20.05423074 179.48583984 21.5234375 C189.65109708 24.18409471 199.8048903 26.8864266 209.95532227 29.60302734 C215.21714187 31.01058789 220.48265271 32.40383387 225.74897289 33.79444504 C229.86648253 34.88456631 233.98108026 35.98537465 238.09496498 37.08908844 C240.03740131 37.60821158 241.98091526 38.12332167 243.92555809 38.63411713 C246.62437935 39.34398893 249.31868134 40.06908028 252.01245117 40.79785156 C252.79315475 40.99950424 253.57385834 41.20115692 254.3782196 41.40892029 C261.58185126 43.38927445 268.18409628 46.34602184 273.3125 51.89257812 C274.199375 52.75882812 275.08625 53.62507813 276 54.51757812 C280.33808794 54.01957779 284.01091085 51.44667554 287.75 49.33007812 C288.53439453 48.89010498 289.31878906 48.45013184 290.12695312 47.99682617 C298.67513742 43.17892471 307.1380547 38.213784 315.60546875 33.25585938 C322.32843167 29.3210009 329.06740042 25.41430579 335.8125 21.51757812 C337.39417969 20.60165894 337.39417969 20.60165894 339.0078125 19.66723633 C343.98977968 16.79128974 348.98526744 13.94013923 354.01171875 11.14257812 C354.87627686 10.66046875 355.74083496 10.17835938 356.6315918 9.68164062 C363.79823625 6.15926553 373.25754447 6.46651321 380.92578125 8.16601562 C389.09490044 11.13891437 395.91851828 16.80811266 400 24.51757812 C403.59442807 33.32470492 404.37137448 41.93190896 401.5625 51.08007812 C396.91040583 62.11656216 388.16498047 68.25716171 377.9375 73.76757812 C376.20227511 74.73497829 374.46706562 75.70240822 372.73306274 76.67199707 C370.96800242 77.65644141 369.19886554 78.63323992 367.42919922 79.609375 C362.23835754 82.49785703 357.12050487 85.50674688 352 88.51757812 C340.45476671 95.26808012 328.87095102 101.95098784 317.28222656 108.62646484 C311.85340056 111.75437962 306.42682059 114.88618579 301 118.01757812 C298.84896371 119.25847287 296.69792203 120.49935826 294.546875 121.74023438 C288.90964119 124.99241938 283.27319809 128.24597161 277.63745117 131.50073242 C275.40426776 132.78913842 273.17007745 134.07580097 270.93481445 135.3605957 C266.50752929 137.90605531 262.08362103 140.45079872 257.71484375 143.09570312 C257.10157227 143.46187744 256.48830078 143.82805176 255.85644531 144.20532227 C254.37101699 145.09514511 252.89387553 145.99876874 251.41796875 146.90429688 C241.33670287 151.66265437 231.84882414 153.10673496 220.78710938 153.03515625 C219.41713218 153.04059343 218.04716085 153.04772494 216.67720032 153.05639648 C212.99731328 153.07444375 209.31788089 153.06764057 205.63798714 153.05488014 C201.76169865 153.0446548 197.88544552 153.05417198 194.00915527 153.0604248 C187.50326651 153.06767377 180.99756019 153.05818629 174.49169922 153.0390625 C167.00196696 153.01729896 159.51267046 153.0243523 152.02294874 153.04636812 C145.55795585 153.0646011 139.09309308 153.06704212 132.62808275 153.05661345 C128.78190515 153.05042162 124.93593143 153.04942241 121.08976746 153.0627594 C117.47137038 153.07443331 113.85352751 153.06608565 110.23518944 153.04318237 C108.29716601 153.03549072 106.35909492 153.04715189 104.4210968 153.05969238 C93.55459855 152.95630259 83.78306501 150.35438367 74.1875 145.26757812 C73.19105469 144.74679687 72.19460937 144.22601563 71.16796875 143.68945312 C70.45253906 143.30273438 69.73710937 142.91601562 69 142.51757812 C69.04640625 143.48179687 69.0928125 144.44601562 69.140625 145.43945312 C69.17671875 146.70273437 69.2128125 147.96601563 69.25 149.26757812 C69.29640625 150.52054688 69.3428125 151.77351562 69.390625 153.06445312 C69 156.51757812 69 156.51757812 67.41308594 158.7010498 C64.1551995 161.15352897 62.05688013 161.02489455 58 161.03515625 C56.95537598 161.04567017 56.95537598 161.04567017 55.88964844 161.05639648 C53.59269068 161.07397008 51.29696979 161.06235732 49 161.04882812 C47.40103927 161.05152326 45.80208013 161.05540585 44.203125 161.0604248 C40.85400774 161.06631894 37.50531757 161.05776005 34.15625 161.0390625 C29.86521409 161.01627248 25.57517889 161.02939608 21.28417969 161.05335236 C17.98299634 161.06781292 14.68204989 161.06320328 11.38085938 161.05284119 C9.79882692 161.05017459 8.21677289 161.05344135 6.63476562 161.0627594 C4.42259837 161.07292991 2.212047 161.05742003 0 161.03515625 C-1.258125 161.03197388 -2.51625 161.0287915 -3.8125 161.0255127 C-7 160.51757812 -7 160.51757812 -9.421875 158.87585449 C-11.46889714 155.81688012 -11.40859243 153.91520392 -11.25 150.26757812 C-11.19585937 148.65109375 -11.19585937 148.65109375 -11.140625 147.00195312 C-11.09421875 146.18210937 -11.0478125 145.36226562 -11 144.51757812 C-11.74280212 144.52646057 -12.48560425 144.53534302 -13.25091553 144.54449463 C-20.25449905 144.62467556 -27.25792335 144.68555999 -34.26183701 144.72482681 C-37.86258286 144.74569325 -41.46294916 144.77399233 -45.06347656 144.81933594 C-48.53887913 144.86282937 -52.01391688 144.88672234 -55.48957062 144.8970871 C-57.45945784 144.90806427 -59.42919847 144.93928512 -61.39886475 144.97076416 C-63.20027924 144.97121735 -63.20027924 144.97121735 -65.03808594 144.97167969 C-66.09509705 144.98056213 -67.15210815 144.98944458 -68.2411499 144.99859619 C-71.76635679 144.38396033 -72.76283009 143.26458753 -75 140.51757812 C-75.50336456 138.16247559 -75.50336456 138.16247559 -75.50793457 135.5078125 C-75.51921387 134.498396 -75.53049316 133.48897949 -75.54211426 132.44897461 C-75.53401733 131.34755127 -75.52592041 130.24612793 -75.51757812 129.11132812 C-75.5245874 127.94674072 -75.53159668 126.78215332 -75.53881836 125.58227539 C-75.55644432 121.72713479 -75.54475841 117.87272638 -75.53125 114.01757812 C-75.53394357 111.3424386 -75.53781853 108.66732143 -75.54284668 105.9921875 C-75.55012197 100.38338263 -75.54053871 94.7747885 -75.52148438 89.16601562 C-75.49971557 82.68339906 -75.50676705 76.20128571 -75.52879 69.71868134 C-75.54694759 64.15081223 -75.54950066 58.58309453 -75.53903532 53.01520538 C-75.53280222 49.69062143 -75.53353198 46.36632561 -75.54518127 43.04174805 C-75.55531748 39.33542655 -75.53988485 35.63007705 -75.51757812 31.92382812 C-75.52567505 30.82240479 -75.53377197 29.72098145 -75.54211426 28.58618164 C-75.53083496 27.57676514 -75.51955566 26.56734863 -75.50793457 25.52734375 C-75.50642647 24.65130493 -75.50491837 23.77526611 -75.50336456 22.87268066 C-74.82967113 19.72065681 -73.48194675 18.50824567 -71 16.51757812 C-68.2411499 16.03656006 -68.2411499 16.03656006 -65.03808594 16.06347656 C-63.83714294 16.06377869 -62.63619995 16.06408081 -61.39886475 16.06439209 C-60.10708313 16.08503723 -58.81530151 16.10568237 -57.484375 16.12695312 C-56.14488571 16.13441742 -54.80538548 16.14010946 -53.46588135 16.144104 C-49.94748564 16.159346 -46.42975485 16.19861395 -42.91162109 16.24291992 C-39.31877639 16.28390448 -35.7258238 16.30212172 -32.1328125 16.32226562 C-25.08827034 16.36511067 -18.04417868 16.43334366 -11 16.51757812 C-11.04640625 15.69773437 -11.0928125 14.87789063 -11.140625 14.03320312 C-11.19476563 12.41671875 -11.19476563 12.41671875 -11.25 10.76757812 C-11.29640625 9.70023437 -11.3428125 8.63289063 -11.390625 7.53320312 C-11 4.51757812 -11 4.51757812 -9.421875 2.15930176 C-6.14919167 -0.05916186 -3.94139813 0.0099696 0 0 Z M5 16.51757812 C5 58.75757813 5 100.99757813 5 144.51757812 C20.84 144.51757812 36.68 144.51757812 53 144.51757812 C53 102.27757812 53 60.03757812 53 16.51757812 C37.16 16.51757812 21.32 16.51757812 5 16.51757812 Z M357 29.14257812 C356.13826172 29.6347583 355.27652344 30.12693848 354.38867188 30.6340332 C351.5816496 32.24395779 348.79031434 33.87889044 346 35.51757812 C344.11500064 36.61334839 342.22958044 37.70839501 340.34375 38.80273438 C336.37506092 41.11044615 332.41282875 43.42886377 328.453125 45.75195312 C320.27001934 50.54193987 312.03078698 55.23298548 303.79101562 59.92456055 C301.59918898 61.17325406 299.41027983 62.42708538 297.22460938 63.68652344 C295.0144496 64.94153543 292.78522062 66.16337981 290.54101562 67.35644531 C288.90422852 68.24638184 288.90422852 68.24638184 287.234375 69.15429688 C286.25178711 69.67338623 285.26919922 70.19247559 284.25683594 70.72729492 C281.76888686 72.35282994 281.76888686 72.35282994 281.17041016 75.23681641 C280.96345541 77.92406156 280.96345541 77.92406156 281.0390625 80.74804688 C280.93990471 87.77833426 276.69534022 93.7157629 272.06640625 98.72460938 C265.25293864 104.63648392 257.25604595 106.93106385 248.41015625 106.82617188 C241.09907156 106.16457315 234.05518893 103.96146258 227 102.01757812 C225.20917695 101.53340939 223.41807112 101.05028558 221.62670898 100.56811523 C217.65798888 99.49787766 213.69165573 98.41920549 209.72607422 97.33740234 C203.59153503 95.66993087 197.44516144 94.04912928 191.29629517 92.43557739 C186.56014119 91.1924674 181.8271068 89.93767935 177.09487343 88.67973518 C173.74748363 87.79027267 170.39902533 86.9054241 167.04760742 86.03125 C163.26809022 85.04475935 159.49526185 84.03410138 155.72265625 83.02148438 C154.58079361 82.7270192 153.43893097 82.43255402 152.26246643 82.12916565 C151.21558151 81.8442778 150.16869659 81.55938995 149.09008789 81.26586914 C148.17530167 81.02369156 147.26051544 80.78151398 146.31800842 80.53199768 C143.53263416 79.31304692 142.51422582 78.12845838 141 75.51757812 C140.58398617 72.1894675 140.56056066 70.28621223 142.2365675 67.35466766 C144 65.51757812 144 65.51757812 146.14433002 65.04627228 C152.23514262 65.24021781 157.70627809 66.14875032 163.5612793 67.8125 C164.90722672 68.1782589 164.90722672 68.1782589 166.28036499 68.55140686 C169.21491232 69.35163234 172.14434641 70.16917 175.07421875 70.98632812 C177.12786921 71.54819117 179.18189738 72.10867526 181.23628235 72.66784668 C186.62374374 74.13693559 192.00737544 75.6195381 197.38989258 77.10662842 C206.0136949 79.4889163 214.64067131 81.85932038 223.27231789 84.21302795 C226.2784322 85.03628892 229.28129529 85.87070573 232.28410339 86.70593262 C234.13157436 87.21197957 235.97916824 87.71757808 237.8269043 88.22265625 C238.6556456 88.45642471 239.4843869 88.69019318 240.33824158 88.93104553 C246.1254121 90.49639639 251.3183534 91.4829709 257.125 89.39257812 C261.41090933 86.59741986 264.34925239 83.46982095 266 78.51757812 C266.39680449 73.25991868 265.89498146 69.9565497 263 65.51757812 C258.0937141 60.59581041 253.38809602 59.08014054 246.73828125 57.38085938 C245.70691544 57.10357498 244.67554962 56.82629059 243.6129303 56.54060364 C240.18321729 55.62225184 236.74806796 54.72625418 233.3125 53.83007812 C230.9008022 53.18884811 228.48951429 52.54607476 226.07861328 51.90185547 C221.55217972 50.69421843 217.02449612 49.49159201 212.49479675 48.29628372 C202.86356802 45.75444461 193.24519583 43.16606914 183.62890625 40.56835938 C180.56148592 39.74031599 177.49400167 38.91250948 174.42651367 38.0847168 C173.67498425 37.88189748 172.92345484 37.67907816 172.1491518 37.4701128 C164.83549795 35.49655366 157.52150971 33.52426559 150.20510674 31.56091881 C148.26201314 31.03910684 146.31936246 30.51564646 144.37672424 29.99214172 C143.21132614 29.67972031 142.04592804 29.36729889 140.84521484 29.04541016 C139.83196136 28.77310577 138.81870789 28.50080139 137.77474976 28.22024536 C127.09957439 25.51690393 117.83950244 26.39135829 107.2421875 29.10742188 C106.1725174 29.37140274 105.10284729 29.63538361 104.00076294 29.90736389 C101.76237106 30.46215596 99.52546592 31.02297875 97.29003906 31.58959961 C93.85271577 32.46072565 90.41132047 33.31393341 86.96875 34.1640625 C84.78880856 34.70666308 82.60911159 35.25024701 80.4296875 35.79492188 C78.88146805 36.18090797 78.88146805 36.18090797 77.30197144 36.57469177 C76.35653473 36.81486526 75.41109802 37.05503876 74.43701172 37.30249023 C73.18439041 37.61892738 73.18439041 37.61892738 71.90646362 37.9417572 C70.00906854 38.35102453 70.00906854 38.35102453 69 39.51757812 C68.90490441 42.13446254 68.87444 44.72486713 68.88647461 47.34204102 C68.88632858 48.16148697 68.88618256 48.98093292 68.8860321 49.82521057 C68.88673148 52.54691165 68.89452499 55.26854518 68.90234375 57.99023438 C68.90420784 59.87210554 68.90563179 61.75397718 68.90663147 63.635849 C68.91045733 68.59906342 68.92028819 73.56224876 68.93133545 78.52545166 C68.9415481 83.58597419 68.94612878 88.6465014 68.95117188 93.70703125 C68.9619104 103.64389301 68.97898764 113.58073315 69 123.51757812 C72.5705596 125.33553208 76.15833928 127.1167261 79.75 128.89257812 C81.24466797 129.65441406 81.24466797 129.65441406 82.76953125 130.43164062 C83.76855469 130.92148437 84.76757812 131.41132813 85.796875 131.91601562 C86.69760742 132.36638184 87.59833984 132.81674805 88.52636719 133.28076172 C97.55837277 136.49668386 106.90484062 136.81190741 116.40283203 136.77636719 C118.16626953 136.78162415 118.16626953 136.78162415 119.96533203 136.7869873 C123.81288736 136.79571854 127.66025563 136.78998673 131.5078125 136.78320312 C134.20197699 136.7836498 136.89613827 136.78649198 139.59030151 136.78900146 C145.22021476 136.79262407 150.85007526 136.78788605 156.47998047 136.77832031 C162.96478784 136.76742844 169.44946948 136.77097353 175.93427384 136.78197312 C181.53123959 136.79108223 187.12816776 136.79231396 192.72513855 136.78709579 C196.05531968 136.78399727 199.38539498 136.78430766 202.71557999 136.79016876 C206.4291244 136.79527209 210.14243029 136.78747063 213.85595703 136.77636719 C215.48493423 136.78243988 215.48493423 136.78243988 217.14682007 136.78863525 C239.11660145 136.66751097 256.17830457 124.2522692 274.58886719 113.50537109 C280.04837499 110.32391443 285.52475646 107.17184853 291 104.01757812 C293.16413837 102.7690117 295.32820073 101.52031353 297.4921875 100.27148438 C301.85065388 97.75688377 306.21012191 95.24403151 310.5703125 92.73242188 C322.0391504 86.1241867 333.49956622 79.50260238 344.91748047 72.80664062 C349.6994998 70.00648059 354.49234106 67.2293529 359.31994629 64.50863647 C361.71785446 63.15706996 364.11180091 61.79855637 366.50585938 60.44018555 C368.20807645 59.47875695 369.91647308 58.52829535 371.625 57.578125 C372.66140625 56.98966797 373.6978125 56.40121094 374.765625 55.79492188 C375.68118164 55.28179443 376.59673828 54.76866699 377.54003906 54.23999023 C381.72812248 51.30758367 384.75479461 47.49839967 386 42.51757812 C386.26120896 37.39014308 385.51774566 33.61422805 382.25 29.58007812 C378.52242329 25.76417021 375.73366541 24.67364562 370.3984375 24.19335938 C365.13203547 24.24765833 361.44126613 26.5108668 357 29.14257812 Z M-59 32.51757812 C-59 64.19757813 -59 95.87757813 -59 128.51757812 C-43.16 128.51757812 -27.32 128.51757812 -11 128.51757812 C-11 96.83757812 -11 65.15757812 -11 32.51757812 C-26.84 32.51757812 -42.68 32.51757812 -59 32.51757812 Z " fill="#000000" transform="translate(91,335.482421875)"/>
</svg>
